<svg xmlns="http://www.w3.org/2000/svg" viewBox="0 0 368.61 627.55"><g id="圖層_2" data-name="圖層 2"><g id="圖層_1-2" data-name="圖層 1"><path d="M184.31,0C134.94,0,93.62,24.4,62.7,67.18V559.81c30.92,43.08,72.24,67.74,121.61,67.74,113.34,0,184.3-130,184.3-314.47S297.65,0,184.31,0Zm46.77,337.17L199,325.66l14.33,30.9-22-26-3.05,33.92L182.23,331l-19.59,27.86,11.5-32.06-30.9,14.33,26-22-33.92-3L168.83,310,141,290.38,173,301.89,158.71,271l22,26,3-33.93,6.06,33.52,19.6-27.86-11.51,32.06,30.9-14.32-26,22,33.92,3.05-33.52,6.06Z"/><path d="M62.7.28H0v312.8C0,209,22.62,122.63,62.7,67.18Z"/><path d="M0,627.27H62.7V559.81C22.62,504,0,417.21,0,313.08Z"/></g></g></svg>