<svg xmlns="http://www.w3.org/2000/svg" viewBox="0 0 412.81 200.36"><defs><style>.cls-1{fill:#d1d4e0;}</style></defs><g id="圖層_2" data-name="圖層 2"><g id="圖層_1-2" data-name="圖層 1"><path class="cls-1" d="M242.4,101c-21.47,0-34.91-20.36-34.91-49.55S220.93,1.71,242.4,1.71"/><path class="cls-1" d="M172.74,1.89a29.45,29.45,0,0,0-15.18,4V96.41a29.28,29.28,0,0,0,15.18,4.07c21.35,0,34.72-20.42,34.72-49.4S194.09,1.89,172.74,1.89Z"/><path class="cls-1" d="M138,51.08c0-21.31,7.23-37.88,19.55-45.15V1.71H137.72V200.36h19.84v-104C145.24,89.07,138,72.39,138,51.08Z"/><path class="cls-1" d="M412.77,149.58c0-1.51,0-3,0-4.55V1.71H393V5.93c12.33,7.27,19.56,23.84,19.56,45.15s-7.23,38-19.56,45.33v53.17c0,12.51-5.77,21.32-15,21.32s-15-8.81-15-21.32H343.06c0,29.11,13.44,49.62,34.91,49.62a29.74,29.74,0,0,0,19.15-6.86c5.81-4.85,9.69-11.64,12.11-18.73C411.91,165.73,412.62,157.74,412.77,149.58Z"/><path class="cls-1" d="M377.79,1.89c-21.36,0-34.73,20.21-34.73,49.19s13.37,49.4,34.73,49.4A29.21,29.21,0,0,0,393,96.41V5.93A29.39,29.39,0,0,0,377.79,1.89Z"/><rect class="cls-1" x="277.31" y="5.33" width="19.85" height="95.71"/><path class="cls-1" d="M277.31,5.3l52.58,95.36V32.84C314.57,6.93,293.94-4.75,277.31,5.3Z"/><path class="cls-1" d="M329.89,1.71V32.84c.59,1,1.18,2,1.75,3.08,15.47,28,15.55,54.34-1.73,64.79l0,0V101h13.17V1.71Z"/><path class="cls-1" d="M242.4,101c21.47,0,34.91-20.36,34.91-49.55S263.87,1.71,242.4,1.71l34.91,49.78-34.91-.11"/><path class="cls-1" d="M58.34,0C42.72,0,29.64,7.72,19.85,21.27V177.2c9.79,13.64,22.87,21.45,38.49,21.45,35.88,0,58.34-41.16,58.34-99.55S94.22,0,58.34,0ZM73.15,106.73,63,103.09l4.53,9.78-7-8.23-1,10.74-1.92-10.61-6.2,8.81,3.64-10.14L45.34,108l8.23-7-10.74-1,10.61-1.92-8.82-6.2,10.15,3.64-4.53-9.78,7,8.23,1-10.74,1.92,10.61,6.2-8.82L62.65,95.21l9.78-4.53-8.23,7,10.74,1-10.61,1.91Z"/><path class="cls-1" d="M19.85.09H0v99c0-33,7.16-60.28,19.85-77.83Z"/><path class="cls-1" d="M0,198.56H19.85V177.2C7.16,159.53,0,132.06,0,99.1Z"/></g></g></svg>