<svg xmlns="http://www.w3.org/2000/svg" xmlns:xlink="http://www.w3.org/1999/xlink" viewBox="0 0 1373.19 1830.92"><defs><style>.cls-1{fill:none;}.cls-2{clip-path:url(#clip-path);}</style><clipPath id="clip-path" transform="translate(-24.85 234.46)"><path class="cls-1" d="M654.61,11.16c-34.38,0-69.53-15.26-102.46-10.09-33.8,5.31-62.54,30.75-94.38,41.09-32.41,10.52-70.59,6.91-100.53,22.19-30.24,15.45-49.7,48.54-76.95,68.38S215.44,161,191.54,184.91s-32.24,61.35-52.17,88.74-52.94,46.71-68.38,77C55.71,380.54,59.32,418.72,48.8,451.13,38.46,483,13,511.72,7.71,545.52,2.53,578.44,17.79,613.59,17.79,648c0,6.18-18,12.59-17.79,18.73s18.48,11.56,18.82,17.69S1.6,698,2.12,704.09s19.1,10.49,19.79,16.59S5.49,735.22,6.36,741.3,26,750.68,27.07,756.73s-15.56,15.45-14.35,21.48,20.18,8.23,21.57,14.21S19.63,808.75,21.2,814.69s20.61,7.06,22.34,13c7.84,26.72.45,58.91,11.53,84.08,11.2,25.42,40,41.68,54.24,65.27s15.39,56.75,32.58,78.36,49.19,30.11,69,49.38,29.17,51,51.33,67.58,55.13,16.64,79.27,30.31c24,13.56,41.06,41.86,66.82,52.32,25.46,10.34,57.42,2,84.38,9.08,26.51,7,50.25,29.94,78,33.49,27.1,3.46,55.87-12.73,83.91-12.73s56.81,16.19,83.91,12.73C766.25,1294,790,1271,816.5,1264c27-7.07,58.92,1.26,84.38-9.08,25.76-10.46,42.84-38.76,66.82-52.33,24.14-13.66,57.18-13.75,79.27-30.3s31.51-48.32,51.33-67.58,51.79-27.71,69-49.38,18.23-54.63,32.57-78.36,43-39.85,54.25-65.27c11.08-25.17,3.68-57.36,11.53-84.08,1.73-5.9,20.78-7,22.34-13s-14.48-16.26-13.09-22.27,20.34-8.17,21.56-14.21-15.39-15.4-14.34-21.48,19.83-9.32,20.71-15.43-16.25-14.49-15.56-20.62,19.28-10.44,19.8-16.59-17-13.54-16.7-19.7,18.64-11.52,18.82-17.69-17.8-12.55-17.8-18.73c0-34.38,15.27-69.53,10.09-102.45-5.31-33.8-30.75-62.55-41.09-94.39-10.52-32.41-6.91-70.59-22.19-100.52-15.44-30.25-48.54-49.7-68.38-77s-28.28-64.84-52.18-88.74-61.35-32.25-88.74-52.18S982.22,79.8,952,64.35C922,49.07,883.86,52.68,851.45,42.16,819.61,31.82,790.87,6.38,757.07,1.07,724.14-4.1,689,11.16,654.61,11.16Z"/></clipPath></defs><g id="圖層_2" data-name="圖層 2"><g id="圖層_1-2" data-name="圖層 1"><g class="cls-2"><image width="3024" height="4032" transform="translate(0) scale(0.45)" xlink:href="../../../Downloads/patrick-pankalla-wpOnFM9hjNI-unsplash.jpg"/></g></g></g></svg>