<svg xmlns="http://www.w3.org/2000/svg" xmlns:xlink="http://www.w3.org/1999/xlink" viewBox="0 0 972.4 1296.53"><defs><style>.cls-1{fill:none;}.cls-2{clip-path:url(#clip-path);}</style><clipPath id="clip-path" transform="translate(157.48 51.57)"><polygon class="cls-1" points="366.58 209.29 400.03 172.82 367.5 174 398.85 133.24 363.99 141.06 392.36 97.04 356.08 111.52 380.74 65.42 343.99 86.24 364.38 39.37 328.13 65.94 343.88 19.59 309.05 51.08 320.05 6.45 287.43 41.88 293.73 0 263.98 38.29 265.83 0.01 239.4 40.08 237.21 6.01 214.4 46.84 208.63 17.37 189.57 58.05 180.78 33.35 165.45 73.1 154.17 53.18 142.47 91.36 129.23 76.09 120.96 112.22 106.26 101.39 101.17 135.1 85.45 128.4 83.26 159.45 82.03 159.24 66.91 156.57 67.36 184.81 50.71 185.4 53.5 210.74 36.85 214.47 41.71 236.89 25.29 243.43 31.98 262.94 15.99 271.99 24.27 288.63 8.88 299.9 18.53 313.74 3.89 326.98 14.73 338.08 0.95 353.04 12.8 361.48 0 377.95 12.7 383.79 0.97 401.57 14.37 404.87 3.8 423.79 17.77 424.61 8.46 444.49 22.86 442.88 14.89 463.55 29.6 459.56 23.07 480.85 37.96 474.52 32.97 496.27 47.9 487.62 44.56 509.66 59.39 498.71 57.83 520.85 72.39 507.65 72.73 529.68 86.86 514.27 89.24 535.95 102.75 518.38 107.31 539.46 119.97 519.8 126.87 539.96 138.44 518.34 147.83 537.24 158.03 513.79 170.05 531.04 178.57 505.97 193.35 521.13 199.85 494.72 217.5 507.29 221.62 479.89 242.19 489.36 243.53 461.43 267.02 467.23 265.21 439.32 291.52 440.89 286.19 413.67 315.14 410.47 305.96 384.71 313.95 382.55 337.22 376.25 323.94 352.82 357.08 338.73 339.56 318.55 373.96 298.61 352.22 282.6 387.16 256.81 361.38 245.84 396.03 214.46 366.58 209.29"/></clipPath></defs><g id="圖層_2" data-name="圖層 2"><g id="圖層_1-2" data-name="圖層 1"><g class="cls-2"><image width="3024" height="4032" transform="translate(0 0) scale(0.32)" xlink:href="../../../Downloads/patrick-pankalla-wpOnFM9hjNI-unsplash.jpg"/></g></g></g></svg>