<svg xmlns="http://www.w3.org/2000/svg" viewBox="0 0 121.68 121.68"><defs><style>.cls-1{fill:#d1d4e0;}</style></defs><g id="圖層_2" data-name="圖層 2"><g id="圖層_1-2" data-name="圖層 1"><path class="cls-1" d="M26.45,23V52.73a16.29,16.29,0,0,0,0-29.72Z"/><path class="cls-1" d="M79,67.65a16.23,16.23,0,0,0-15.12,10.4H94.13A16.24,16.24,0,0,0,79,67.65Z"/><path class="cls-1" d="M0,0V121.68H121.68V0ZM19.77,113.46H13.1V8.22h6.67A29.64,29.64,0,0,1,38.5,60.84a29.64,29.64,0,0,1-18.73,52.62ZM108,89.71H63.88a16.18,16.18,0,0,0,25.26,6.82h16.6a29.57,29.57,0,1,1,2.85-12.65A30.33,30.33,0,0,1,108,89.71Zm.58-40H81.22V38h27.37Z"/><path class="cls-1" d="M26.45,69V98.68a16.29,16.29,0,0,0,0-29.73Z"/></g></g></svg>