<svg xmlns="http://www.w3.org/2000/svg" viewBox="0 0 824 7438.08"><defs><style>.cls-5{fill:none;}.cls-6{fill:#7c1814;}.cls-7{fill:#00172f;}</style></defs><g id="圖層_2" data-name="圖層 2"><g id="mobile"><polygon class="cls-5" points="371.72 2615.94 401.8 2590.48 366.05 2607.05 379.36 2569.97 356.69 2602.19 349.68 2563.42 346.15 2602.66 320.69 2572.59 337.26 2608.34 300.18 2595.02 332.4 2617.7 293.63 2624.71 332.88 2628.23 302.8 2653.69 338.55 2637.12 325.24 2674.2 347.91 2641.98 354.92 2680.75 358.45 2641.51 383.91 2671.58 367.34 2635.83 404.42 2649.15 372.2 2626.47 410.97 2619.46 371.72 2615.94"/><path class="cls-5" d="M412.45,4359.48c107,0,197.28-71.19,226.2-168.76h-.71c-28.74-62.21-119.21-107.64-226.39-107.64-106.84,0-197.07,45.14-226.1,107h.61C214.8,4288,305.27,4359.48,412.45,4359.48Z"/><path class="cls-5" d="M136.14,4769.4V4190.72H0V5840.49H599.8c-100.36,0-181.72,103.07-181.72,230.22s81.36,230.22,181.72,230.22S781.51,6404,781.51,6531.15s-81.36,230.22-181.71,230.22H0v676.71H824V4769.4Zm685.23,780.14h-100l22.07-6-12.59-22.22L762.23,5508l-16.61-19.15,32.63-18.91-20.62-15.18,33.14-24.46-24.46-10.4,32.87-29.77-27.93-4.91L803,5350.61l-30.85,1.12,29.72-38.66-33.06,7.42,26.91-41.76-34.41,13.73,23.39-43.72-34.86,19.75L769.16,5224l-34.39,25.21,15-44-33,29.87,10.43-42.34-30.93,33.61,6-39.72L673.93,5223l1.75-36.3-25.06,38-2.09-32.32-21.63,38.73-5.47-28-18.08,38.59L595,5218.32,580.48,5256l-10.7-18.89-11.1,36.21-12.56-14.48-7.85,34.27-13.94-10.28-4.83,32-14.91-6.35-2.07,29.45-1.17-.2V4897.18h320Z"/><path d="M352.3,2353.06c-148.58,0-269,120.45-269,269l269,269c122.22,0,225.38-81.51,258.15-193.12a269.41,269.41,0,0,0,10.87-75.91C621.32,2473.51,500.88,2353.06,352.3,2353.06Zm52.12,296.09-37.08-13.32,16.57,35.75-25.46-30.07-3.53,39.24-7-38.77-22.67,32.22,13.31-37.08-35.75,16.57,30.08-25.46-39.25-3.52,38.77-7L300.18,2595l37.08,13.32-16.57-35.75,25.46,30.07,3.53-39.24,7,38.77L379.36,2570l-13.31,37.09,35.75-16.57-30.08,25.46,39.25,3.52-38.77,7Z"/><polygon class="cls-6" points="25.08 1549.14 46.59 1370.87 70.21 1548.88 63.56 1369.43 114.73 1541.56 80.1 1365.36 157.56 1527.36 95.79 1358.75 197.65 1506.63 110.26 1349.77 234 1479.89 123.15 1338.63 265.72 1447.8 134.13 1325.61 292.02 1411.14 142.94 1311.04 312.27 1370.81 149.37 1295.26 325.96 1327.81 153.25 1278.68 332.76 1283.2 154.48 1261.69 332.49 1238.08 153.05 1244.72 325.17 1193.55 148.97 1228.19 310.97 1150.72 142.36 1212.49 290.25 1110.63 133.38 1198.02 263.51 1074.29 122.24 1185.14 231.41 1042.57 109.22 1174.15 194.75 1016.26 94.65 1165.34 154.42 996.01 78.88 1158.91 111.42 982.32 62.29 1155.04 66.81 975.53 45.31 1153.8 21.69 975.79 28.34 1155.24 0 1059.93 0 1099.29 11.8 1159.31 0 1134.64 0 1393.83 13.02 1365.76 0 1436.4 0 1473.7 29.6 1369.63 25.08 1549.14"/><path class="cls-7" d="M740.49,4.93c-15.18,0-30.71-6.74-45.24-4.46-14.93,2.35-27.62,13.58-41.68,18.15-14.32,4.64-31.17,3.05-44.39,9.8s-21.95,21.43-34,30.19S546.56,71.1,536,81.65s-14.24,27.1-23,39.19-23.37,20.63-30.19,34-5.15,30.08-9.8,44.39c-4.57,14.07-15.8,26.76-18.15,41.68-2.28,14.54,4.46,30.07,4.46,45.25,0,2.72-7.93,5.56-7.86,8.26s8.16,5.11,8.31,7.82-7.6,6-7.37,8.7,8.43,4.63,8.74,7.32-7.25,6.42-6.87,9.11,8.69,4.14,9.15,6.81S456.5,341,457,343.65s8.91,3.63,9.52,6.28-6.47,7.2-5.78,9.83,9.1,3.11,9.87,5.72c3.46,11.8.19,26,5.09,37.13S493.4,421,499.69,431.43s6.8,25.06,14.39,34.6,21.72,13.3,30.48,21.81,12.88,22.51,22.67,29.84,24.34,7.35,35,13.38,18.14,18.49,29.51,23.11,25.36.89,37.26,4c11.71,3.07,22.19,13.22,34.43,14.79,12,1.53,24.68-5.62,37.06-5.62,13.46,0,28.56,4.95,42.39-.05,12.49-4.53,21.58-18,34-25.79a54,54,0,0,1,7.07-3.62V17.36C811.27,12.27,799.44,2.63,785.73.47,771.19-1.81,755.67,4.93,740.49,4.93Z"/><path class="cls-6" d="M687.86,4190.72H638.65c-28.92,97.57-119.24,168.76-226.2,168.76-107.18,0-197.65-71.47-226.39-169.36h-.61c-.09.2-.19.4-.29.6h-49V4769.4H824V4190.12H687.86Z"/><path class="cls-6" d="M136.14,4190.12h49.31c29-61.9,119.26-107,226.1-107,107.18,0,197.65,45.43,226.39,107.64h.71c.06-.2.13-.4.19-.6h49V3822.55H0v368.17H136.14Z"/><path class="cls-6" d="M687.86,4190.12h-49c-.06.2-.13.4-.19.6h49.21Z"/><path class="cls-6" d="M185.45,4190.12H136.14v.6h49C185.26,4190.52,185.36,4190.32,185.45,4190.12Z"/><polygon points="501.35 5337.73 502.52 5337.93 504.59 5308.48 519.5 5314.83 524.33 5282.85 538.27 5293.13 546.12 5258.86 558.68 5273.34 569.78 5237.13 580.48 5256.02 595.01 5218.32 603.35 5241.75 621.43 5203.16 626.9 5231.12 648.53 5192.39 650.62 5224.7 675.68 5186.7 673.93 5223.01 702.15 5186.69 696.17 5226.41 727.11 5192.8 716.68 5235.14 749.72 5205.27 734.77 5249.24 769.16 5224.03 749.82 5268.49 784.68 5248.74 761.29 5292.46 795.7 5278.73 768.79 5320.49 801.85 5313.07 772.13 5351.73 802.98 5350.61 771.25 5385.2 799.18 5390.11 766.31 5419.88 790.77 5430.28 757.63 5454.74 778.25 5469.92 745.62 5488.84 762.23 5507.98 730.81 5521.35 743.4 5543.57 721.33 5549.54 821.37 5549.54 821.37 4897.18 501.35 4897.18 501.35 5337.73"/><path class="cls-7" d="M781.51,6531.15c0-127.14-81.36-230.22-181.71-230.22s-181.72-103.07-181.72-230.22,81.36-230.22,181.72-230.22H0v920.88H599.8C700.15,6761.37,781.51,6658.3,781.51,6531.15Z"/></g></g></svg>