<svg xmlns="http://www.w3.org/2000/svg" viewBox="0 0 1141.73 1137.72"><defs><style>.cls-1{fill:#00172f;}</style></defs><g id="圖層_2" data-name="圖層 2"><g id="圖層_1-2" data-name="圖層 1"><path class="cls-1" d="M573.77,9.78C543.64,9.78,512.83-3.6,484,.94c-29.63,4.65-54.82,27-82.73,36-28.41,9.23-61.87,6.06-88.11,19.46C286.62,69.94,269.57,99,245.67,116.34s-56.83,24.79-77.78,45.73-28.26,53.78-45.73,77.79-46.4,40.94-59.94,67.45C48.83,333.55,52,367,42.77,395.42c-9.06,27.91-31.36,53.1-36,82.73C2.22,507,15.6,537.82,15.6,568c0,5.41-15.75,11-15.6,16.41s16.19,10.13,16.5,15.5S1.4,611.78,1.86,617.14s16.74,9.19,17.35,14.54S4.81,644.43,5.57,649.76,22.81,658,23.73,663.28s-13.64,13.55-12.58,18.83,17.68,7.21,18.9,12.46-12.84,14.31-11.47,19.52,18.06,6.18,19.58,11.35c6.88,23.43.39,51.64,10.11,73.7,9.82,22.29,35,36.54,47.54,57.21S109.3,906.1,124.37,925s43.12,26.39,60.5,43.28,25.57,44.67,45,59.23,48.32,14.59,69.48,26.57c21,11.89,36,36.69,58.57,45.86,22.31,9.07,50.32,1.76,73.95,8,23.24,6.09,44.05,26.24,68.35,29.35,23.76,3,49-11.16,73.55-11.16,26.73,0,56.7,9.84,84.14-.1,24.79-9,42.83-35.75,67.58-51.17,22.69-14.14,54.44-17.82,76.6-36.07,21-17.26,31-47.83,51.08-67.7,19.6-19.39,50.19-28.91,68.6-49.8s24.16-52.64,41.09-74.18c17.62-22.41,47-35.39,62.5-57.31,16.94-23.92,19.36-56,33.29-78,16.63-26.23,44.55-42.52,56-63.68C1135.24,610.28,1132,578.7,1132,568c0-30.14,13.38-61,8.84-89.81-4.65-29.63-27-54.82-36-82.73-9.22-28.41-6-61.87-19.45-88.11-13.53-26.51-42.54-43.56-59.93-67.45S1000.6,183,979.65,162.07s-53.77-28.26-77.78-45.73-40.94-46.4-67.45-59.93C808.18,43,774.71,46.18,746.31,37,718.4,27.89,693.2,5.59,663.58.94,634.72-3.6,603.91,9.78,573.77,9.78Z"/></g></g></svg>