<svg xmlns="http://www.w3.org/2000/svg" viewBox="0 0 1032.33 1032.33"><g id="圖層_2" data-name="圖層 2"><g id="圖層_1-2" data-name="圖層 1"><path d="M516.16,0C231.09,0,0,231.09,0,516.16l516.16,516.17c234.49,0,432.43-156.39,495.3-370.54a516.21,516.21,0,0,0,20.87-145.63C1032.33,231.09,801.23,0,516.16,0Zm100,568.09L545,542.54l31.79,68.59L528,553.43l-6.76,75.3-13.46-74.39-43.5,61.82L489.78,545,421.2,576.8,478.89,528,403.6,521.2,478,507.74l-61.83-43.5,71.15,25.54L455.52,421.2l48.85,57.69,6.76-75.29L524.58,478l43.51-61.83-25.55,71.15,68.59-31.79-57.7,48.85,75.3,6.76-74.39,13.45Z"/></g></g></svg>