<svg xmlns="http://www.w3.org/2000/svg" viewBox="0 0 625.48 935.41"><g id="圖層_2" data-name="圖層 2"><g id="圖層_1-2" data-name="圖層 1"><polygon points="625.48 0 210.48 0 153.58 15.4 186.05 72.68 105.03 107.15 147.86 156.5 63.74 205.25 116.91 244.4 31.46 307.45 94.52 334.27 9.79 411.01 81.79 423.66 0 512.83 79.53 509.95 2.9 609.62 88.12 590.48 18.75 698.13 107.47 662.73 47.17 775.44 137.04 724.53 87.19 839.14 175.82 774.16 137.29 887.51 222.46 810.5 195.58 919.65 275.33 833.02 259.93 935.41 332.68 841.79 328.15 935.38 392.77 837.4 398.14 920.7 453.91 820.87 468 892.93 514.61 793.47 536.12 853.87 573.59 756.68 601.17 805.38 625.48 726.09 625.48 0"/></g></g></svg>