<svg xmlns="http://www.w3.org/2000/svg" viewBox="0 0 271.94 121.68"><defs><style>.cls-1{fill:#d1d4e0;}</style></defs><g id="圖層_2" data-name="圖層 2"><g id="圖層_1-2" data-name="圖層 1"><circle class="cls-1" cx="60.84" cy="60.84" r="24.95"/><path class="cls-1" d="M0,0V121.68H121.68V0ZM60.84,101.79a41,41,0,1,1,41-40.95A41,41,0,0,1,60.84,101.79Zm41.73-71.24a10,10,0,1,1,10-10A10,10,0,0,1,102.57,30.55Z"/><path class="cls-1" d="M176.71,23V52.73a16.29,16.29,0,0,0,0-29.72Z"/><path class="cls-1" d="M229.26,67.65a16.25,16.25,0,0,0-15.13,10.4h30.26A16.24,16.24,0,0,0,229.26,67.65Z"/><path class="cls-1" d="M150.26,0V121.68H271.94V0ZM170,113.46h-6.67V8.22H170a29.64,29.64,0,0,1,18.73,52.62A29.64,29.64,0,0,1,170,113.46Zm88.24-23.75H214.13a16.25,16.25,0,0,0,15.13,10.4,16,16,0,0,0,10.13-3.58H256a29.58,29.58,0,1,1,2.84-12.65A30.33,30.33,0,0,1,258.27,89.71Zm.57-40H231.48V38h27.36Z"/><path class="cls-1" d="M176.71,69V98.68a16.29,16.29,0,0,0,0-29.73Z"/></g></g></svg>