<svg xmlns="http://www.w3.org/2000/svg" viewBox="0 0 675.84 514.09"><defs><style>.cls-1{fill:#7c1814;}</style></defs><g id="圖層_2" data-name="圖層 2"><g id="圖層_1-2" data-name="圖層 1"><path class="cls-1" d="M507.37,432.39l-37.81-29.67,4.57-1.94Z"/><path class="cls-1" d="M480.81,458.63l-41.2-44.38c1.9-.67,3.78-1.34,5.67-2Z"/><path class="cls-1" d="M529.49,402.31,502.7,387.39l2.94-1.5Z"/><path class="cls-1" d="M546.63,369.15l-7.06-2.59.71-.45Z"/><path class="cls-1" d="M450.48,480.39,412,423.11c2.14-.63,4.28-1.26,6.4-1.91Z"/><polygon class="cls-1" points="185.79 260.27 238.77 262.24 211.1 254.01 237.14 247.57 242.14 248.56 239.08 247.09 337.92 222.64 272.93 375.74 201.87 478.92 274.17 349.14 171.8 456.8 263.51 339.93 145.56 430.25 254.42 329.16 123.79 399.91 247.13 317.1 107.04 366.55 241.81 304.05 95.72 330.98 238.6 290.33 90.09 294.07 237.58 276.28 161.76 266.22 185.79 260.27"/><path class="cls-1" d="M270.47,507.81l12.38-63q3.21-.13,6.45-.32Z"/><path class="cls-1" d="M381.55,508.47,360.8,435.54c2.34-.45,4.69-.93,7-1.41Z"/><path class="cls-1" d="M235,496.07l18.63-50.86c1.89,0,3.77.05,5.66.06Z"/><path class="cls-1" d="M344.64,514.09l-9-74.29c2.35-.35,4.7-.7,7.06-1.08Z"/><path class="cls-1" d="M307.31,513.87l2.62-70.95q3.44-.33,6.89-.72Z"/><path class="cls-1" d="M392.84,428.36l24.28,68.78L386,430.05c1-.24,2-.48,3-.74Z"/><path class="cls-1" d="M412,423.11q-9.48,2.77-19.18,5.25l-25.17-71.3Z"/><path class="cls-1" d="M335.68,439.8q-9.48,1.38-18.86,2.4l10-75.6Z"/><path class="cls-1" d="M386,430.05q-9.11,2.2-18.17,4.08l-13.22-71.76Z"/><path class="cls-1" d="M360.8,435.54q-9.06,1.75-18.06,3.18l-1.84-73.14Z"/><path class="cls-1" d="M309.93,442.92q-10.4,1-20.63,1.57l23.5-79.08Z"/><path class="cls-1" d="M253.66,445.21c-3.38-.06-6.75-.14-10.1-.27l29.37-69.2,13.21-19.17Z"/><path class="cls-1" d="M558.38,333.72,416,291.38l148.46,5.5L417.17,277.34l147.49-17.79-148.51,3.74L559,222.64l-146.1,26.93,134.77-62.5L407.62,236.52,531,153.7,400.33,224.46,509.2,123.37,391.25,213.69,483,96.82,380.59,204.48,452.88,74.7,368.61,197,419.72,57.55l-64.09,134L384.28,45.8,342,188.2l5.5-148.45L327.91,187,310.11,39.53,313.85,188,273.21,45.15l26.92,146.1L237.63,56.47l49.45,140.09L204.27,73.22,275,203.85,173.94,95l90.32,118L147.38,121.23,255,223.6,125.26,151.3l122.35,84.27-139.49-51.1,131,62.62-1.94.48L96.37,219.9,211.11,254l-25.32,6.27-95.48-3.54,71.45,9.48-157.82,39C-24.3,191.12,102.34,61.6,286.79,16S643.66,25.87,671.9,140c19.54,79-35,165.29-131.62,226.1L412.61,305.06Z"/><path class="cls-1" d="M282.85,444.81q-11.88.53-23.53.46L299.12,362Z"/><path class="cls-1" d="M502.7,387.39q-13.86,7-28.57,13.39L399.71,330Z"/><path class="cls-1" d="M539.57,366.56q-16.2,10.17-33.93,19.33l-98.5-67.84Z"/><path class="cls-1" d="M439.61,414.25q-10.44,3.66-21.19,6.95l-38.69-71.43Z"/><path class="cls-1" d="M469.56,402.72q-11.9,5-24.28,9.5l-54.79-71.54Z"/></g></g></svg>