<svg xmlns="http://www.w3.org/2000/svg" viewBox="0 0 572.28 1111.51"><defs><style>.cls-1{fill:#d1d4e0;}</style></defs><g id="圖層_2" data-name="圖層 2"><g id="圖層_1-2" data-name="圖層 1"><rect class="cls-1" y="561.49" width="572.28" height="387.41"/><path d="M286.14,554.15C128.11,554.15,0,485.69,0,401.23V658.69H572.28V401.23C572.28,485.69,444.17,554.15,286.14,554.15Z"/><path d="M286.14,927.64C128.11,927.64,0,807.23,0,658.69v452.82H572.28V658.69C572.28,807.23,444.17,927.64,286.14,927.64Z"/><path d="M286.14,317.45c-158,0-286.14-53-286.14-118.29V398.32H572.28V199.16C572.28,264.49,444.17,317.45,286.14,317.45Z"/><path d="M286.14,80.87c158,0,286.14,53,286.14,118.29V0H0V199.16C0,133.83,128.11,80.87,286.14,80.87Z"/></g></g></svg>