<svg xmlns="http://www.w3.org/2000/svg" viewBox="0 0 869.06 627.55"><g id="圖層_2" data-name="圖層 2"><g id="圖層_1-2" data-name="圖層 1"><path d="M330.71,313.78c-67.83,0-110.29-64.31-110.29-156.54S262.88,0,330.71,0"/><path d="M110.63.57A92.92,92.92,0,0,0,62.7,13.31V299.16A92.33,92.33,0,0,0,110.63,312C178.1,312,220.34,247.49,220.34,156S178.1.57,110.63.57Z"/><path d="M.93,156C.93,88.62,23.77,36.29,62.7,13.31V0H0V627.55H62.7V299.16C23.77,276,.93,223.27.93,156Z"/><path d="M868.94,467.12c.09-4.77.12-9.55.12-14.36V0h-62.7V13.31c38.93,23,61.78,75.31,61.78,142.64s-22.85,120-61.78,143.21v168c0,39.52-18.24,67.37-47.38,67.37s-47.39-27.85-47.39-67.37H648.72c0,92,42.45,156.77,110.26,156.77a94,94,0,0,0,60.52-21.68c18.35-15.32,30.6-36.78,38.24-59.18C866.21,518.16,868.45,492.91,868.94,467.12Z"/><path d="M758.43.57C691,.57,648.72,64.4,648.72,156S691,312,758.43,312a92.33,92.33,0,0,0,47.93-12.86V13.31A92.92,92.92,0,0,0,758.43.57Z"/><rect x="441" y="11.42" width="62.7" height="302.36"/><path d="M441,11.33,607.09,312.58V98.33C558.72,16.49,493.54-20.43,441,11.33Z"/><path d="M607.09,0V98.33c1.88,3.18,3.73,6.41,5.55,9.72,48.85,88.6,49.11,171.69-5.46,204.69l-.09-.16v1.2h41.63V0Z"/><path d="M330.71,313.78c67.83,0,110.29-64.31,110.29-156.54S398.54,0,330.71,0L441,157.24l-110.29-.35"/></g></g></svg>