<svg xmlns="http://www.w3.org/2000/svg" viewBox="0 0 1015.7 1015.7"><defs><style>.cls-1{fill:#7c1814;}</style></defs><g id="圖層_2" data-name="圖層 2"><g id="圖層_1-2" data-name="圖層 1"><polygon class="cls-1" points="1003.66 623.78 690.98 566.15 979.42 699.92 679.6 594.08 943.57 771.33 664 619.89 896.99 836.25 644.54 642.94 840.83 893.08 621.73 662.66 776.46 940.42 596.11 678.57 705.49 977.12 568.32 690.27 629.64 1002.26 539.03 697.49 550.8 1015.22 508.99 700.03 470.9 1015.7 478.91 697.84 391.91 1003.66 449.54 690.98 315.78 979.42 421.61 679.6 244.37 943.57 395.81 664 179.45 896.99 372.76 644.54 122.62 840.83 353.04 621.73 75.27 776.46 337.13 596.11 38.58 705.49 325.42 568.32 13.44 629.64 318.21 539.03 0.47 550.8 315.67 508.99 0 470.9 317.86 478.91 12.03 391.91 324.72 449.54 36.27 315.78 336.1 421.61 72.13 244.37 351.7 395.81 118.71 179.45 371.15 372.76 174.87 122.62 393.97 353.04 239.23 75.27 419.59 337.13 310.21 38.58 447.38 325.42 386.05 13.44 476.66 318.21 464.89 0.47 506.71 315.67 544.79 0 536.79 317.86 623.78 12.03 566.15 324.72 699.92 36.27 594.08 336.1 771.33 72.13 619.89 351.7 836.25 118.71 642.94 371.15 893.08 174.87 662.66 393.97 940.42 239.23 678.57 419.59 977.12 310.21 690.27 447.38 1002.26 386.05 697.49 476.66 1015.22 464.89 700.03 506.71 1015.7 544.79 697.84 536.79 1003.66 623.78"/></g></g></svg>