<svg xmlns="http://www.w3.org/2000/svg" viewBox="0 0 2787.25 2903.13"><defs><style>.cls-1{fill:#7c1814;}.cls-2{fill:#00172f;}</style></defs><g id="圖層_2" data-name="圖層 2"><g id="圖層_1-2" data-name="圖層 1"><path d="M1304.69,1870.81c-285.07,0-516.17,231.09-516.17,516.16l516.17,516.16c234.49,0,432.43-156.38,495.29-370.53A516.21,516.21,0,0,0,1820.85,2387C1820.85,2101.9,1589.76,1870.81,1304.69,1870.81Zm100,568.08-71.15-25.54,31.79,68.59-48.85-57.7-6.76,75.29-13.45-74.39L1252.76,2487l25.55-71.15-68.59,31.79,57.7-48.85-75.3-6.76,74.39-13.45-61.82-43.5,71.15,25.54L1244.05,2292l48.84,57.7,6.76-75.3,13.46,74.4,43.5-61.83-25.54,71.15,68.58-31.79L1342,2375.17l75.29,6.77-74.39,13.45Z"/><polygon class="cls-1" points="1003.66 1139.48 690.98 1081.85 979.42 1215.62 679.6 1109.78 943.57 1287.02 664 1135.58 896.99 1351.94 644.54 1158.63 840.83 1408.77 621.73 1178.35 776.46 1456.12 596.11 1194.26 705.49 1492.81 568.32 1205.97 629.64 1517.95 539.03 1213.18 550.8 1530.92 508.99 1215.72 470.9 1531.39 478.91 1213.54 391.91 1519.36 449.54 1206.67 315.78 1495.12 421.61 1195.29 244.37 1459.27 395.81 1179.69 179.45 1412.68 372.76 1160.24 122.62 1356.52 353.04 1137.42 75.27 1292.16 337.13 1111.8 38.58 1221.18 325.42 1084.01 13.44 1145.34 318.21 1054.73 0.47 1066.5 315.67 1024.68 0 986.6 317.86 994.6 12.03 907.61 324.72 965.24 36.27 831.47 336.1 937.31 72.13 760.06 351.7 911.5 118.71 695.15 371.15 888.45 174.87 638.31 393.97 868.73 239.23 590.97 419.59 852.82 310.21 554.27 447.38 841.12 386.05 529.13 476.66 833.9 464.89 516.17 506.71 831.36 544.79 515.69 536.79 833.55 623.78 527.73 566.15 840.42 699.92 551.97 594.08 851.79 771.33 587.82 619.89 867.4 836.25 634.4 642.94 886.85 893.08 690.57 662.66 909.66 940.42 754.93 678.57 935.28 977.12 825.9 690.27 963.07 1002.26 901.75 697.49 992.36 1015.22 980.59 700.03 1022.41 1015.7 1060.49 697.84 1052.48 1003.66 1139.48"/><path class="cls-2" d="M2219.29,9.78c-30.13,0-60.95-13.38-89.8-8.84-29.63,4.65-54.82,27-82.74,36-28.4,9.23-61.87,6.06-88.1,19.46-26.52,13.53-43.57,42.54-67.46,59.93s-56.84,24.79-77.78,45.73-28.27,53.78-45.74,77.79-46.39,40.94-59.93,67.45c-13.39,26.24-10.23,59.7-19.45,88.11-9.06,27.91-31.36,53.1-36,82.73-4.53,28.86,8.84,59.67,8.84,89.81,0,5.41-15.74,11-15.59,16.41s16.19,10.13,16.49,15.5-15.09,11.91-14.64,17.27,16.74,9.19,17.35,14.54-14.39,12.75-13.63,18.08,17.24,8.22,18.16,13.52-13.65,13.55-12.58,18.83,17.68,7.21,18.9,12.46-12.84,14.31-11.47,19.52,18.06,6.18,19.58,11.35c6.88,23.43.39,51.64,10.11,73.7,9.82,22.29,35,36.54,47.54,57.21s13.49,49.75,28.56,68.69,43.11,26.39,60.5,43.28,25.57,44.67,45,59.23,48.31,14.59,69.48,26.57c21,11.89,36,36.69,58.56,45.86,22.32,9.07,50.33,1.76,74,8,23.24,6.09,44.05,26.24,68.35,29.35,23.75,3,49-11.16,73.55-11.16,26.72,0,56.7,9.84,84.13-.1,24.8-9,42.84-35.75,67.59-51.17,22.68-14.14,54.44-17.82,76.6-36.07,21-17.26,31-47.83,51.08-67.7,19.59-19.39,50.19-28.91,68.6-49.8s24.15-52.64,41.09-74.18c17.62-22.41,47-35.39,62.5-57.31,16.94-23.92,19.36-56,33.28-78,16.64-26.23,44.56-42.52,56.05-63.68,20.54-37.86,17.26-69.44,17.26-80.18,0-30.14,13.37-61,8.84-89.81-4.66-29.63-26.95-54.82-36-82.73-9.22-28.41-6.06-61.87-19.45-88.11-13.54-26.51-42.55-43.56-59.93-67.45s-24.79-56.84-45.74-77.79-53.78-28.26-77.78-45.73-40.94-46.4-67.46-59.93c-26.23-13.4-59.7-10.23-88.1-19.46-27.92-9.06-53.11-31.36-82.73-36C2280.24-3.6,2249.42,9.78,2219.29,9.78Z"/></g></g></svg>